<svg height="512pt" viewBox="0 -16 512.00001 512" width="512pt" xmlns="http://www.w3.org/2000/svg"><path d="m504.390625 34.4375v335.054688c0 14.816406-12.003906 26.824218-26.824219 26.824218h-375.644531c-14.820313 0-26.824219-12.007812-26.824219-26.824218v-335.054688c0-14.816406 12.003906-26.820312 26.824219-26.820312h375.644531c14.816406 0 26.824219 12.003906 26.824219 26.820312zm0 0" fill="#c4e2f2"/><path d="m504.390625 34.4375v32.042969h-429.292969v-32.042969c0-14.816406 12.003906-26.820312 26.824219-26.820312h375.644531c14.816406 0 26.824219 12.003906 26.824219 26.820312zm0 0" fill="#83b2c6"/><path d="m411.523438 229.859375c0 67.257813-54.519532 121.777344-121.785157 121.777344-67.253906 0-121.773437-54.519531-121.773437-121.777344 0-67.253906 54.519531-121.773437 121.773437-121.773437v121.773437l96.140625-74.753906c16.074219 20.640625 25.644532 46.582031 25.644532 74.753906zm0 0" fill="#ff491f"/><path d="m411.519531 229.859375c0 40.605469-19.882812 76.574219-50.4375 98.699219l-71.335937-98.699219 96.128906-74.753906c16.074219 20.640625 25.644531 46.582031 25.644531 74.753906zm0 0" fill="#2c92bf"/><path d="m412.84375 98.617188-96.136719 74.5v-121.355469c39.070313 0 73.863281 18.347656 96.136719 46.855469zm0 0" fill="#ff8e1d"/><g fill="#32cc77"><path d="m7.609375 245.082031h35.089844v227.4375h-35.089844zm0 0"/><path d="m75.097656 193.328125h35.089844v279.191406h-35.089844zm0 0"/><path d="m145.121094 340.984375h35.09375v131.535156h-35.09375zm0 0"/><path d="m214.632812 280.09375h35.09375v192.425781h-35.09375zm0 0"/></g><path d="m117.644531 36.164062c-2.519531-5.960937-11.1875-6.199218-13.929687-.285156-1.371094 2.960938-.664063 6.5625 1.734375 8.785156 2.433593 2.25 6.152343 2.644532 9.015625.980469 3.226562-1.878906 4.632812-6.027343 3.179687-9.480469zm0 0"/><path d="m169.402344 36.164062c-2.578125-6.09375-11.480469-6.15625-14.054688 0-1.300781 3.109376-.316406 6.804688 2.316406 8.890626 2.445313 1.9375 5.9375 2.148437 8.609376.558593 3.191406-1.898437 4.574218-6.015625 3.128906-9.449219zm0 0"/><path d="m143.523438 36.164062c-1.175782-2.785156-3.917969-4.664062-6.953126-4.695312-3.351562-.035156-6.371093 2.207031-7.355468 5.398438-.910156 2.957031.15625 6.273437 2.570312 8.1875 2.535156 2.007812 6.171875 2.148437 8.871094.394531 3.023438-1.972657 4.273438-5.949219 2.867188-9.285157zm0 0"/><path d="m477.566406 0h-375.648437c-18.988281 0-34.433594 15.449219-34.433594 34.433594v133.519531c0 4.203125 3.40625 7.609375 7.609375 7.609375s7.613281-3.40625 7.613281-7.609375v-93.867187h226.390625v99.03125c0 2.902343 1.652344 5.554687 4.261719 6.832031 1.0625.523437 2.207031.777343 3.347656.777343 1.65625 0 3.304688-.539062 4.664063-1.59375l96.136718-74.5c1.601563-1.238281 2.640626-3.066406 2.890626-5.074218.253906-2.007813-.308594-4.03125-1.554688-5.628906-5.757812-7.371094-12.203125-13.996094-19.199219-19.84375h97.132813v295.402343c0 10.589844-8.617188 19.210938-19.210938 19.210938h-220.226562v-33.550781c10.523437 2.71875 21.378906 4.097656 32.402344 4.097656 71.347656 0 129.394531-58.042969 129.394531-129.386719 0-8.207031-.773438-16.425781-2.300781-24.417969-.789063-4.128906-4.78125-6.832031-8.90625-6.046875-4.128907.789063-6.835938 4.777344-6.046876 8.90625 1.347657 7.054688 2.03125 14.308594 2.03125 21.558594 0 35.273437-16.082031 66.863281-41.300781 87.820313l-62.394531-86.324219 84.128906-65.417969c4.398438 6.492188 8.113282 13.414062 11.082032 20.65625 1.59375 3.890625 6.039062 5.75 9.929687 4.15625 3.890625-1.597656 5.75-6.042969 4.15625-9.933594-4.457031-10.863281-10.386719-21.085937-17.628906-30.386718-2.582031-3.316407-7.363281-3.914063-10.675781-1.332032l-83.859376 65.203125v-106.214843c0-4.203126-3.40625-7.613282-7.609374-7.613282-71.347657 0-129.386719 58.042969-129.386719 129.386719 0 38.753906 16.960937 74.800781 46.667969 99.5v59.339844h-19.195313v-47.714844c0-4.203125-3.40625-7.613281-7.613281-7.613281h-35.089844c-4.207031 0-7.613281 3.410156-7.613281 7.613281v47.714844h-19.710938v-195.371094c0-4.207031-3.40625-7.613281-7.609375-7.613281h-35.09375c-4.203125 0-7.609375 3.40625-7.609375 7.613281v279.191406c0 4.203125 3.40625 7.609375 7.609375 7.609375h35.09375c4.203125 0 7.609375-3.40625 7.609375-7.609375v-68.597656h19.710938v68.597656c0 4.203125 3.40625 7.609375 7.613281 7.609375h35.089844c4.207031 0 7.613281-3.40625 7.613281-7.609375v-68.597656h19.195313v68.597656c0 4.203125 3.40625 7.609375 7.613281 7.609375h35.089843c4.207032 0 7.613282-3.40625 7.613282-7.609375v-68.597656h220.226562c18.984375 0 34.433594-15.445313 34.433594-34.433594v-335.054687c0-18.984375-15.449219-34.433594-34.433594-34.433594zm-394.855468 464.90625v-263.96875h19.867187v263.96875zm70.023437 0v-116.308594h19.871094v116.308594zm22.84375-235.046875c0-60.390625 47.136719-109.980469 106.550781-113.914063v113.914063c0 1.632813.539063 3.175781 1.460938 4.449219l-.011719.011718 66.703125 92.289063c-17.558594 11.027344-38.316406 17.414063-60.539062 17.414063-11.074219 0-21.945313-1.578126-32.402344-4.675782v-59.25c0-4.207031-3.40625-7.613281-7.613282-7.613281h-35.089843c-4.207031 0-7.613281 3.40625-7.613281 7.613281v28.46875c-20.152344-21.105468-31.445313-49.003906-31.445313-78.707031zm46.667969 235.046875v-177.199219h19.871094v177.199219zm102.074218-307.316406v-97.96875c29.992188 1.953125 57.628907 15.417968 77.625 37.816406zm52.589844-98.726563c-18.269531-9.574219-38.816406-14.714843-60.203125-14.714843-4.203125 0-7.609375 3.410156-7.609375 7.613281v7.101562h-226.390625v-24.429687c0-10.59375 8.617188-19.210938 19.210938-19.210938h375.648437c10.59375 0 19.210938 8.617188 19.210938 19.210938v24.429687zm0 0"/><path d="m42.703125 237.46875h-35.089844c-4.207031 0-7.613281 3.410156-7.613281 7.613281v227.4375c0 4.203125 3.40625 7.609375 7.613281 7.609375h35.089844c4.203125 0 7.613281-3.40625 7.613281-7.609375v-61.511719c0-4.203124-3.410156-7.613281-7.613281-7.613281s-7.613281 3.410157-7.613281 7.613281v53.898438h-19.867188v-212.214844h19.867188v132.941406c0 4.203126 3.410156 7.613282 7.613281 7.613282s7.613281-3.410156 7.613281-7.613282v-140.550781c0-4.203125-3.410156-7.613281-7.613281-7.613281zm0 0"/><path d="m478.066406 351.886719h-80.679687c-4.203125 0-7.613281 3.410156-7.613281 7.613281s3.410156 7.613281 7.613281 7.613281h80.679687c4.203125 0 7.609375-3.410156 7.609375-7.613281s-3.40625-7.613281-7.609375-7.613281zm0 0"/><path d="m478.066406 319.671875h-56.324218c-4.203126 0-7.609376 3.410156-7.609376 7.613281s3.40625 7.609375 7.609376 7.609375h56.324218c4.203125 0 7.609375-3.40625 7.609375-7.609375s-3.40625-7.613281-7.609375-7.613281zm0 0"/></svg>